# pohon prosedural - dibuat untuk menguji jalur mesh
# 'v x y z r g b': tiga angka terakhir adalah warna verteks
# 423 verteks, 431 muka, 759 segitiga setelah dikipas
v 0.19964 0.00104 0.00000 0.340 0.240 0.150
v 0.15316 0.00768 -0.12850 0.340 0.240 0.150
v 0.03502 0.01682 -0.19687 0.340 0.240 0.150
v -0.09951 0.02418 -0.17313 0.340 0.240 0.150
v -0.18748 0.02632 -0.06837 0.340 0.240 0.150
v -0.18772 0.02223 0.06837 0.340 0.240 0.150
v -0.10013 0.01383 0.17313 0.340 0.240 0.150
v 0.03431 0.00505 0.19687 0.340 0.240 0.150
v 0.15270 0.00000 0.12850 0.340 0.240 0.150
v 0.20622 0.46126 0.01377 0.340 0.240 0.150
v 0.16462 0.46721 -0.10124 0.340 0.240 0.150
v 0.05888 0.47539 -0.16243 0.340 0.240 0.150
v -0.06152 0.48198 -0.14118 0.340 0.240 0.150
v -0.14026 0.48389 -0.04743 0.340 0.240 0.150
v -0.14047 0.48023 0.07496 0.340 0.240 0.150
v -0.06208 0.47271 0.16872 0.340 0.240 0.150
v 0.05825 0.46486 0.18997 0.340 0.240 0.150
v 0.16421 0.46034 0.12878 0.340 0.240 0.150
v 0.21390 0.92149 0.02827 0.340 0.240 0.150
v 0.17718 0.92674 -0.07324 0.340 0.240 0.150
v 0.08385 0.93396 -0.12726 0.340 0.240 0.150
v -0.02243 0.93977 -0.10850 0.340 0.240 0.150
v -0.09193 0.94146 -0.02574 0.340 0.240 0.150
v -0.09212 0.93823 0.08229 0.340 0.240 0.150
v -0.02292 0.93160 0.16504 0.340 0.240 0.150
v 0.08329 0.92466 0.18380 0.340 0.240 0.150
v 0.17682 0.92067 0.12979 0.340 0.240 0.150
v 0.22268 1.38172 0.04352 0.340 0.240 0.150
v 0.19084 1.38627 -0.04451 0.340 0.240 0.150
v 0.10992 1.39253 -0.09134 0.340 0.240 0.150
v 0.01776 1.39757 -0.07508 0.340 0.240 0.150
v -0.04250 1.39903 -0.00332 0.340 0.240 0.150
v -0.04266 1.39623 0.09035 0.340 0.240 0.150
v 0.01734 1.39048 0.16211 0.340 0.240 0.150
v 0.10943 1.38447 0.17837 0.340 0.240 0.150
v 0.19053 1.38101 0.13154 0.340 0.240 0.150
v 0.23257 1.84194 0.05949 0.340 0.240 0.150
v 0.20561 1.84580 -0.01504 0.340 0.240 0.150
v 0.13709 1.85110 -0.05469 0.340 0.240 0.150
v 0.05906 1.85537 -0.04092 0.340 0.240 0.150
v 0.00804 1.85661 0.01984 0.340 0.240 0.150
v 0.00790 1.85423 0.09915 0.340 0.240 0.150
v 0.05870 1.84936 0.15991 0.340 0.240 0.150
v 0.13668 1.84427 0.17368 0.340 0.240 0.150
v 0.20534 1.84134 0.13402 0.340 0.240 0.150
v 0.24356 2.30217 0.07621 0.340 0.240 0.150
v 0.22148 2.30533 0.01517 0.340 0.240 0.150
v 0.16537 2.30967 -0.01731 0.340 0.240 0.150
v 0.10146 2.31316 -0.00603 0.340 0.240 0.150
v 0.05968 2.31418 0.04373 0.340 0.240 0.150
v 0.05956 2.31224 0.10868 0.340 0.240 0.150
v 0.10117 2.30825 0.15844 0.340 0.240 0.150
v 0.16503 2.30408 0.16972 0.340 0.240 0.150
v 0.22126 2.30168 0.13724 0.340 0.240 0.150
v 0.04116 1.16302 0.08195 0.340 0.240 0.150
v 0.06954 1.11826 0.04417 0.340 0.240 0.150
v 0.06061 1.10721 -0.01934 0.340 0.240 0.150
v 0.02110 1.13818 -0.06076 0.340 0.240 0.150
v -0.01924 1.18785 -0.04889 0.340 0.240 0.150
v -0.03003 1.21883 0.00732 0.340 0.240 0.150
v -0.00315 1.20777 0.06555 0.340 0.240 0.150
v 0.29368 1.38915 -0.00622 0.340 0.240 0.150
v 0.31702 1.35235 -0.03728 0.340 0.240 0.150
v 0.30968 1.34326 -0.08950 0.340 0.240 0.150
v 0.27719 1.36873 -0.12356 0.340 0.240 0.150
v 0.24402 1.40957 -0.11380 0.340 0.240 0.150
v 0.23515 1.43504 -0.06758 0.340 0.240 0.150
v 0.25725 1.42595 -0.01970 0.340 0.240 0.150
v 0.54621 1.61528 -0.09439 0.340 0.240 0.150
v 0.56450 1.58644 -0.11873 0.340 0.240 0.150
v 0.55874 1.57932 -0.15966 0.340 0.240 0.150
v 0.53328 1.59928 -0.18636 0.340 0.240 0.150
v 0.50728 1.63129 -0.17871 0.340 0.240 0.150
v 0.50033 1.65125 -0.14248 0.340 0.240 0.150
v 0.51765 1.64413 -0.10496 0.340 0.240 0.150
v 0.79873 1.84142 -0.18256 0.340 0.240 0.150
v 0.81197 1.82053 -0.20019 0.340 0.240 0.150
v 0.80781 1.81537 -0.22983 0.340 0.240 0.150
v 0.78937 1.82983 -0.24915 0.340 0.240 0.150
v 0.77054 1.85301 -0.24362 0.340 0.240 0.150
v 0.76551 1.86746 -0.21738 0.340 0.240 0.150
v 0.77805 1.86230 -0.19021 0.340 0.240 0.150
v 0.00485 1.56302 -0.03468 0.340 0.240 0.150
v -0.01246 1.52747 0.00555 0.340 0.240 0.150
v 0.00973 1.51869 0.05665 0.340 0.240 0.150
v 0.05472 1.54329 0.08016 0.340 0.240 0.150
v 0.08862 1.58275 0.05836 0.340 0.240 0.150
v 0.08591 1.60735 0.00768 0.340 0.240 0.150
v 0.04863 1.59857 -0.03373 0.340 0.240 0.150
v -0.17519 1.78930 0.09493 0.340 0.240 0.150
v -0.18939 1.76013 0.12794 0.340 0.240 0.150
v -0.17118 1.75292 0.16987 0.340 0.240 0.150
v -0.13427 1.77311 0.18916 0.340 0.240 0.150
v -0.10645 1.80548 0.17127 0.340 0.240 0.150
v -0.10868 1.82567 0.12969 0.340 0.240 0.150
v -0.13927 1.81847 0.09571 0.340 0.240 0.150
v -0.35523 2.01557 0.22454 0.340 0.240 0.150
v -0.36632 1.99278 0.25032 0.340 0.240 0.150
v -0.35210 1.98716 0.28308 0.340 0.240 0.150
v -0.32326 2.00293 0.29815 0.340 0.240 0.150
v -0.30153 2.02822 0.28418 0.340 0.240 0.150
v -0.30326 2.04399 0.25169 0.340 0.240 0.150
v -0.32716 2.03836 0.22515 0.340 0.240 0.150
v -0.53526 2.24185 0.35415 0.340 0.240 0.150
v -0.54325 2.22544 0.37271 0.340 0.240 0.150
v -0.53301 2.22139 0.39630 0.340 0.240 0.150
v -0.51225 2.23275 0.40715 0.340 0.240 0.150
v -0.49660 2.25096 0.39709 0.340 0.240 0.150
v -0.49785 2.26231 0.37370 0.340 0.240 0.150
v -0.51506 2.25826 0.35459 0.340 0.240 0.150
v -0.00299 1.91302 0.04472 0.340 0.240 0.150
v 0.02445 1.88036 0.06613 0.340 0.240 0.150
v 0.07113 1.87229 0.06033 0.340 0.240 0.150
v 0.10190 1.89489 0.03169 0.340 0.240 0.150
v 0.09359 1.93114 0.00178 0.340 0.240 0.150
v 0.05246 1.95374 -0.00688 0.340 0.240 0.150
v 0.00947 1.94568 0.01223 0.340 0.240 0.150
v 0.06392 2.09732 0.24948 0.340 0.240 0.150
v 0.08653 2.07040 0.26712 0.340 0.240 0.150
v 0.12501 2.06376 0.26235 0.340 0.240 0.150
v 0.15037 2.08238 0.23874 0.340 0.240 0.150
v 0.14353 2.11226 0.21408 0.340 0.240 0.150
v 0.10962 2.13089 0.20694 0.340 0.240 0.150
v 0.07419 2.12424 0.22270 0.340 0.240 0.150
v 0.13083 2.28163 0.45423 0.340 0.240 0.150
v 0.14862 2.26045 0.46812 0.340 0.240 0.150
v 0.17889 2.25522 0.46436 0.340 0.240 0.150
v 0.19885 2.26988 0.44579 0.340 0.240 0.150
v 0.19346 2.29338 0.42639 0.340 0.240 0.150
v 0.16678 2.30804 0.42077 0.340 0.240 0.150
v 0.13891 2.30281 0.43316 0.340 0.240 0.150
v 0.19774 2.46594 0.65899 0.340 0.240 0.150
v 0.21071 2.45050 0.66911 0.340 0.240 0.150
v 0.23277 2.44668 0.66637 0.340 0.240 0.150
v 0.24732 2.45737 0.65283 0.340 0.240 0.150
v 0.24339 2.47450 0.63869 0.340 0.240 0.150
v 0.22395 2.48519 0.63460 0.340 0.240 0.150
v 0.20363 2.48137 0.64363 0.340 0.240 0.150
v 0.08317 2.06302 -0.00041 0.340 0.240 0.150
v 0.05305 2.03942 -0.00819 0.340 0.240 0.150
v 0.02063 2.03359 0.01278 0.340 0.240 0.150
v 0.01033 2.04992 0.04672 0.340 0.240 0.150
v 0.02990 2.07611 0.06807 0.340 0.240 0.150
v 0.06461 2.09244 0.06075 0.340 0.240 0.150
v 0.08831 2.08662 0.03028 0.340 0.240 0.150
v -0.02824 2.23608 -0.11060 0.340 0.240 0.150
v -0.05323 2.21650 -0.11706 0.340 0.240 0.150
v -0.08012 2.21166 -0.09966 0.340 0.240 0.150
v -0.08867 2.22521 -0.07150 0.340 0.240 0.150
v -0.07243 2.24694 -0.05379 0.340 0.240 0.150
v -0.04364 2.26049 -0.05986 0.340 0.240 0.150
v -0.02397 2.25565 -0.08514 0.340 0.240 0.150
v -0.13965 2.40913 -0.22079 0.340 0.240 0.150
v -0.15950 2.39358 -0.22592 0.340 0.240 0.150
v -0.18088 2.38973 -0.21210 0.340 0.240 0.150
v -0.18767 2.40050 -0.18972 0.340 0.240 0.150
v -0.17477 2.41777 -0.17565 0.340 0.240 0.150
v -0.15189 2.42853 -0.18047 0.340 0.240 0.150
v -0.13626 2.42469 -0.20056 0.340 0.240 0.150
v -0.25106 2.58219 -0.33098 0.340 0.240 0.150
v -0.26578 2.57065 -0.33479 0.340 0.240 0.150
v -0.28163 2.56780 -0.32453 0.340 0.240 0.150
v -0.28667 2.57579 -0.30794 0.340 0.240 0.150
v -0.27710 2.58859 -0.29750 0.340 0.240 0.150
v -0.26013 2.59658 -0.30108 0.340 0.240 0.150
v -0.24854 2.59373 -0.31598 0.340 0.240 0.150
v 0.14873 2.83486 0.07621 0.190 0.400 0.170
v 0.41774 2.78267 0.07621 0.190 0.400 0.170
v 0.37503 2.78267 0.22164 0.190 0.400 0.170
v 0.26048 2.78267 0.32090 0.190 0.400 0.170
v 0.11045 2.78267 0.34248 0.190 0.400 0.170
v -0.02743 2.78267 0.27951 0.190 0.400 0.170
v -0.10938 2.78267 0.15199 0.190 0.400 0.170
v -0.10938 2.78267 0.00042 0.190 0.400 0.170
v -0.02743 2.78267 -0.12710 0.190 0.400 0.170
v 0.11045 2.78267 -0.19006 0.190 0.400 0.170
v 0.26048 2.78267 -0.16849 0.190 0.400 0.170
v 0.37503 2.78267 -0.06923 0.190 0.400 0.170
v 0.63347 2.63644 0.07621 0.190 0.400 0.170
v 0.55652 2.63644 0.33827 0.190 0.400 0.170
v 0.35010 2.63644 0.51714 0.190 0.400 0.170
v 0.07975 2.63644 0.55601 0.190 0.400 0.170
v -0.16870 2.63644 0.44254 0.190 0.400 0.170
v -0.31637 2.63644 0.21277 0.190 0.400 0.170
v -0.31637 2.63644 -0.06036 0.190 0.400 0.170
v -0.16870 2.63644 -0.29013 0.190 0.400 0.170
v 0.07975 2.63644 -0.40360 0.190 0.400 0.170
v 0.35010 2.63644 -0.36473 0.190 0.400 0.170
v 0.55652 2.63644 -0.18586 0.190 0.400 0.170
v 0.75319 2.42513 0.07621 0.190 0.400 0.170
v 0.65723 2.42513 0.40300 0.190 0.400 0.170
v 0.39983 2.42513 0.62604 0.190 0.400 0.170
v 0.06271 2.42513 0.67451 0.190 0.400 0.170
v -0.24710 2.42513 0.53302 0.190 0.400 0.170
v -0.43124 2.42513 0.24650 0.190 0.400 0.170
v -0.43124 2.42513 -0.09409 0.190 0.400 0.170
v -0.24710 2.42513 -0.38061 0.190 0.400 0.170
v 0.06271 2.42513 -0.52210 0.190 0.400 0.170
v 0.39983 2.42513 -0.47363 0.190 0.400 0.170
v 0.65723 2.42513 -0.25059 0.190 0.400 0.170
v 0.75319 2.19059 0.07621 0.190 0.400 0.170
v 0.65723 2.19059 0.40300 0.190 0.400 0.170
v 0.39983 2.19059 0.62604 0.190 0.400 0.170
v 0.06271 2.19059 0.67451 0.190 0.400 0.170
v -0.24710 2.19059 0.53302 0.190 0.400 0.170
v -0.43124 2.19059 0.24650 0.190 0.400 0.170
v -0.43124 2.19059 -0.09409 0.190 0.400 0.170
v -0.24710 2.19059 -0.38061 0.190 0.400 0.170
v 0.06271 2.19059 -0.52210 0.190 0.400 0.170
v 0.39983 2.19059 -0.47363 0.190 0.400 0.170
v 0.65723 2.19059 -0.25059 0.190 0.400 0.170
v 0.63347 1.97928 0.07621 0.190 0.400 0.170
v 0.55652 1.97928 0.33827 0.190 0.400 0.170
v 0.35010 1.97928 0.51714 0.190 0.400 0.170
v 0.07975 1.97928 0.55601 0.190 0.400 0.170
v -0.16870 1.97928 0.44254 0.190 0.400 0.170
v -0.31637 1.97928 0.21277 0.190 0.400 0.170
v -0.31637 1.97928 -0.06036 0.190 0.400 0.170
v -0.16870 1.97928 -0.29013 0.190 0.400 0.170
v 0.07975 1.97928 -0.40360 0.190 0.400 0.170
v 0.35010 1.97928 -0.36473 0.190 0.400 0.170
v 0.55652 1.97928 -0.18586 0.190 0.400 0.170
v 0.41774 1.83305 0.07621 0.190 0.400 0.170
v 0.37503 1.83305 0.22164 0.190 0.400 0.170
v 0.26048 1.83305 0.32090 0.190 0.400 0.170
v 0.11045 1.83305 0.34248 0.190 0.400 0.170
v -0.02743 1.83305 0.27951 0.190 0.400 0.170
v -0.10938 1.83305 0.15199 0.190 0.400 0.170
v -0.10938 1.83305 0.00042 0.190 0.400 0.170
v -0.02743 1.83305 -0.12710 0.190 0.400 0.170
v 0.11045 1.83305 -0.19006 0.190 0.400 0.170
v 0.26048 1.83305 -0.16849 0.190 0.400 0.170
v 0.37503 1.83305 -0.06923 0.190 0.400 0.170
v 0.14873 1.78086 0.07621 0.190 0.400 0.170
v 0.78885 2.20142 -0.21613 0.190 0.400 0.170
v 0.98885 2.15319 -0.21613 0.190 0.400 0.170
v 0.94206 2.15319 -0.08758 0.190 0.400 0.170
v 0.82358 2.15319 -0.01917 0.190 0.400 0.170
v 0.68885 2.15319 -0.04293 0.190 0.400 0.170
v 0.60092 2.15319 -0.14773 0.190 0.400 0.170
v 0.60092 2.15319 -0.28454 0.190 0.400 0.170
v 0.68885 2.15319 -0.38934 0.190 0.400 0.170
v 0.82358 2.15319 -0.41310 0.190 0.400 0.170
v 0.94206 2.15319 -0.34469 0.190 0.400 0.170
v 1.13526 2.02142 -0.21613 0.190 0.400 0.170
v 1.05422 2.02142 0.00653 0.190 0.400 0.170
v 0.84901 2.02142 0.12501 0.190 0.400 0.170
v 0.61565 2.02142 0.08387 0.190 0.400 0.170
v 0.46333 2.02142 -0.09765 0.190 0.400 0.170
v 0.46333 2.02142 -0.33461 0.190 0.400 0.170
v 0.61565 2.02142 -0.51613 0.190 0.400 0.170
v 0.84901 2.02142 -0.55728 0.190 0.400 0.170
v 1.05422 2.02142 -0.43880 0.190 0.400 0.170
v 1.18885 1.84142 -0.21613 0.190 0.400 0.170
v 1.09527 1.84142 0.04098 0.190 0.400 0.170
v 0.85831 1.84142 0.17779 0.190 0.400 0.170
v 0.58885 1.84142 0.13028 0.190 0.400 0.170
v 0.41298 1.84142 -0.07933 0.190 0.400 0.170
v 0.41298 1.84142 -0.35294 0.190 0.400 0.170
v 0.58885 1.84142 -0.56254 0.190 0.400 0.170
v 0.85831 1.84142 -0.61006 0.190 0.400 0.170
v 1.09527 1.84142 -0.47325 0.190 0.400 0.170
v 1.13526 1.66142 -0.21613 0.190 0.400 0.170
v 1.05422 1.66142 0.00653 0.190 0.400 0.170
v 0.84901 1.66142 0.12501 0.190 0.400 0.170
v 0.61565 1.66142 0.08387 0.190 0.400 0.170
v 0.46333 1.66142 -0.09765 0.190 0.400 0.170
v 0.46333 1.66142 -0.33461 0.190 0.400 0.170
v 0.61565 1.66142 -0.51613 0.190 0.400 0.170
v 0.84901 1.66142 -0.55728 0.190 0.400 0.170
v 1.05422 1.66142 -0.43880 0.190 0.400 0.170
v 0.98885 1.52965 -0.21613 0.190 0.400 0.170
v 0.94206 1.52965 -0.08758 0.190 0.400 0.170
v 0.82358 1.52965 -0.01917 0.190 0.400 0.170
v 0.68885 1.52965 -0.04293 0.190 0.400 0.170
v 0.60092 1.52965 -0.14773 0.190 0.400 0.170
v 0.60092 1.52965 -0.28454 0.190 0.400 0.170
v 0.68885 1.52965 -0.38934 0.190 0.400 0.170
v 0.82358 1.52965 -0.41310 0.190 0.400 0.170
v 0.94206 1.52965 -0.34469 0.190 0.400 0.170
v 0.78885 1.48142 -0.21613 0.190 0.400 0.170
v -0.51904 2.64685 0.37938 0.230 0.460 0.200
v -0.29404 2.59259 0.37938 0.230 0.460 0.200
v -0.34668 2.59259 0.52401 0.230 0.460 0.200
v -0.47997 2.59259 0.60097 0.230 0.460 0.200
v -0.63154 2.59259 0.57424 0.230 0.460 0.200
v -0.73047 2.59259 0.45634 0.230 0.460 0.200
v -0.73047 2.59259 0.30243 0.230 0.460 0.200
v -0.63154 2.59259 0.18453 0.230 0.460 0.200
v -0.47997 2.59259 0.15780 0.230 0.460 0.200
v -0.34668 2.59259 0.23476 0.230 0.460 0.200
v -0.12933 2.44435 0.37938 0.230 0.460 0.200
v -0.22050 2.44435 0.62988 0.230 0.460 0.200
v -0.45137 2.44435 0.76317 0.230 0.460 0.200
v -0.71390 2.44435 0.71688 0.230 0.460 0.200
v -0.88525 2.44435 0.51267 0.230 0.460 0.200
v -0.88525 2.44435 0.24609 0.230 0.460 0.200
v -0.71390 2.44435 0.04188 0.230 0.460 0.200
v -0.45137 2.44435 -0.00441 0.230 0.460 0.200
v -0.22050 2.44435 0.12888 0.230 0.460 0.200
v -0.06904 2.24185 0.37938 0.230 0.460 0.200
v -0.17432 2.24185 0.66864 0.230 0.460 0.200
v -0.44090 2.24185 0.82255 0.230 0.460 0.200
v -0.74404 2.24185 0.76909 0.230 0.460 0.200
v -0.94190 2.24185 0.53329 0.230 0.460 0.200
v -0.94190 2.24185 0.22547 0.230 0.460 0.200
v -0.74404 2.24185 -0.01033 0.230 0.460 0.200
v -0.44090 2.24185 -0.06378 0.230 0.460 0.200
v -0.17432 2.24185 0.09013 0.230 0.460 0.200
v -0.12933 2.03935 0.37938 0.230 0.460 0.200
v -0.22050 2.03935 0.62988 0.230 0.460 0.200
v -0.45137 2.03935 0.76317 0.230 0.460 0.200
v -0.71390 2.03935 0.71688 0.230 0.460 0.200
v -0.88525 2.03935 0.51267 0.230 0.460 0.200
v -0.88525 2.03935 0.24609 0.230 0.460 0.200
v -0.71390 2.03935 0.04188 0.230 0.460 0.200
v -0.45137 2.03935 -0.00441 0.230 0.460 0.200
v -0.22050 2.03935 0.12888 0.230 0.460 0.200
v -0.29404 1.89111 0.37938 0.230 0.460 0.200
v -0.34668 1.89111 0.52401 0.230 0.460 0.200
v -0.47997 1.89111 0.60097 0.230 0.460 0.200
v -0.63154 1.89111 0.57424 0.230 0.460 0.200
v -0.73047 1.89111 0.45634 0.230 0.460 0.200
v -0.73047 1.89111 0.30243 0.230 0.460 0.200
v -0.63154 1.89111 0.18453 0.230 0.460 0.200
v -0.47997 1.89111 0.15780 0.230 0.460 0.200
v -0.34668 1.89111 0.23476 0.230 0.460 0.200
v -0.51904 1.83685 0.37938 0.230 0.460 0.200
v 0.22279 2.82594 0.65203 0.190 0.400 0.170
v 0.42279 2.77770 0.65203 0.190 0.400 0.170
v 0.37600 2.77770 0.78059 0.190 0.400 0.170
v 0.25752 2.77770 0.84900 0.190 0.400 0.170
v 0.12279 2.77770 0.82524 0.190 0.400 0.170
v 0.03485 2.77770 0.72044 0.190 0.400 0.170
v 0.03485 2.77770 0.58363 0.190 0.400 0.170
v 0.12279 2.77770 0.47883 0.190 0.400 0.170
v 0.25752 2.77770 0.45507 0.190 0.400 0.170
v 0.37600 2.77770 0.52348 0.190 0.400 0.170
v 0.56920 2.64594 0.65203 0.190 0.400 0.170
v 0.48815 2.64594 0.87470 0.190 0.400 0.170
v 0.28294 2.64594 0.99318 0.190 0.400 0.170
v 0.04958 2.64594 0.95203 0.190 0.400 0.170
v -0.10273 2.64594 0.77051 0.190 0.400 0.170
v -0.10273 2.64594 0.53355 0.190 0.400 0.170
v 0.04958 2.64594 0.35203 0.190 0.400 0.170
v 0.28294 2.64594 0.31089 0.190 0.400 0.170
v 0.48815 2.64594 0.42937 0.190 0.400 0.170
v 0.62279 2.46594 0.65203 0.190 0.400 0.170
v 0.52920 2.46594 0.90915 0.190 0.400 0.170
v 0.29225 2.46594 1.04596 0.190 0.400 0.170
v 0.02279 2.46594 0.99844 0.190 0.400 0.170
v -0.15309 2.46594 0.78884 0.190 0.400 0.170
v -0.15309 2.46594 0.51523 0.190 0.400 0.170
v 0.02279 2.46594 0.30562 0.190 0.400 0.170
v 0.29225 2.46594 0.25811 0.190 0.400 0.170
v 0.52920 2.46594 0.39492 0.190 0.400 0.170
v 0.56920 2.28594 0.65203 0.190 0.400 0.170
v 0.48815 2.28594 0.87470 0.190 0.400 0.170
v 0.28294 2.28594 0.99318 0.190 0.400 0.170
v 0.04958 2.28594 0.95203 0.190 0.400 0.170
v -0.10273 2.28594 0.77051 0.190 0.400 0.170
v -0.10273 2.28594 0.53355 0.190 0.400 0.170
v 0.04958 2.28594 0.35203 0.190 0.400 0.170
v 0.28294 2.28594 0.31089 0.190 0.400 0.170
v 0.48815 2.28594 0.42937 0.190 0.400 0.170
v 0.42279 2.15417 0.65203 0.190 0.400 0.170
v 0.37600 2.15417 0.78059 0.190 0.400 0.170
v 0.25752 2.15417 0.84900 0.190 0.400 0.170
v 0.12279 2.15417 0.82524 0.190 0.400 0.170
v 0.03485 2.15417 0.72044 0.190 0.400 0.170
v 0.03485 2.15417 0.58363 0.190 0.400 0.170
v 0.12279 2.15417 0.47883 0.190 0.400 0.170
v 0.25752 2.15417 0.45507 0.190 0.400 0.170
v 0.37600 2.15417 0.52348 0.190 0.400 0.170
v 0.22279 2.10594 0.65203 0.190 0.400 0.170
v -0.26727 2.98719 -0.31612 0.230 0.460 0.200
v -0.04227 2.93293 -0.31612 0.230 0.460 0.200
v -0.09491 2.93293 -0.17149 0.230 0.460 0.200
v -0.22820 2.93293 -0.09453 0.230 0.460 0.200
v -0.37977 2.93293 -0.12126 0.230 0.460 0.200
v -0.47870 2.93293 -0.23916 0.230 0.460 0.200
v -0.47870 2.93293 -0.39307 0.230 0.460 0.200
v -0.37977 2.93293 -0.51097 0.230 0.460 0.200
v -0.22820 2.93293 -0.53770 0.230 0.460 0.200
v -0.09491 2.93293 -0.46074 0.230 0.460 0.200
v 0.12244 2.78469 -0.31612 0.230 0.460 0.200
v 0.03126 2.78469 -0.06561 0.230 0.460 0.200
v -0.19960 2.78469 0.06767 0.230 0.460 0.200
v -0.46213 2.78469 0.02138 0.230 0.460 0.200
v -0.63348 2.78469 -0.18283 0.230 0.460 0.200
v -0.63348 2.78469 -0.44941 0.230 0.460 0.200
v -0.46213 2.78469 -0.65362 0.230 0.460 0.200
v -0.19960 2.78469 -0.69991 0.230 0.460 0.200
v 0.03126 2.78469 -0.56662 0.230 0.460 0.200
v 0.18273 2.58219 -0.31612 0.230 0.460 0.200
v 0.07745 2.58219 -0.02686 0.230 0.460 0.200
v -0.18913 2.58219 0.12705 0.230 0.460 0.200
v -0.49227 2.58219 0.07360 0.230 0.460 0.200
v -0.69013 2.58219 -0.16221 0.230 0.460 0.200
v -0.69013 2.58219 -0.47003 0.230 0.460 0.200
v -0.49227 2.58219 -0.70583 0.230 0.460 0.200
v -0.18913 2.58219 -0.75928 0.230 0.460 0.200
v 0.07745 2.58219 -0.60537 0.230 0.460 0.200
v 0.12244 2.37969 -0.31612 0.230 0.460 0.200
v 0.03126 2.37969 -0.06561 0.230 0.460 0.200
v -0.19960 2.37969 0.06767 0.230 0.460 0.200
v -0.46213 2.37969 0.02138 0.230 0.460 0.200
v -0.63348 2.37969 -0.18283 0.230 0.460 0.200
v -0.63348 2.37969 -0.44941 0.230 0.460 0.200
v -0.46213 2.37969 -0.65362 0.230 0.460 0.200
v -0.19960 2.37969 -0.69991 0.230 0.460 0.200
v 0.03126 2.37969 -0.56662 0.230 0.460 0.200
v -0.04227 2.23145 -0.31612 0.230 0.460 0.200
v -0.09491 2.23145 -0.17149 0.230 0.460 0.200
v -0.22820 2.23145 -0.09453 0.230 0.460 0.200
v -0.37977 2.23145 -0.12126 0.230 0.460 0.200
v -0.47870 2.23145 -0.23916 0.230 0.460 0.200
v -0.47870 2.23145 -0.39307 0.230 0.460 0.200
v -0.37977 2.23145 -0.51097 0.230 0.460 0.200
v -0.22820 2.23145 -0.53770 0.230 0.460 0.200
v -0.09491 2.23145 -0.46074 0.230 0.460 0.200
v -0.26727 2.17719 -0.31612 0.230 0.460 0.200
v -0.00000 0.00000 -0.00000 0.340 0.240 0.150
f 1 2 11 10
f 2 3 12 11
f 3 4 13 12
f 4 5 14 13
f 5 6 15 14
f 6 7 16 15
f 7 8 17 16
f 8 9 18 17
f 9 1 10 18
f 10 11 20 19
f 11 12 21 20
f 12 13 22 21
f 13 14 23 22
f 14 15 24 23
f 15 16 25 24
f 16 17 26 25
f 17 18 27 26
f 18 10 19 27
f 19 20 29 28
f 20 21 30 29
f 21 22 31 30
f 22 23 32 31
f 23 24 33 32
f 24 25 34 33
f 25 26 35 34
f 26 27 36 35
f 27 19 28 36
f 28 29 38 37
f 29 30 39 38
f 30 31 40 39
f 31 32 41 40
f 32 33 42 41
f 33 34 43 42
f 34 35 44 43
f 35 36 45 44
f 36 28 37 45
f 37 38 47 46
f 38 39 48 47
f 39 40 49 48
f 40 41 50 49
f 41 42 51 50
f 42 43 52 51
f 43 44 53 52
f 44 45 54 53
f 45 37 46 54
f 55 56 63 62
f 56 57 64 63
f 57 58 65 64
f 58 59 66 65
f 59 60 67 66
f 60 61 68 67
f 61 55 62 68
f 62 63 70 69
f 63 64 71 70
f 64 65 72 71
f 65 66 73 72
f 66 67 74 73
f 67 68 75 74
f 68 62 69 75
f 69 70 77 76
f 70 71 78 77
f 71 72 79 78
f 72 73 80 79
f 73 74 81 80
f 74 75 82 81
f 75 69 76 82
f 83 84 91 90
f 84 85 92 91
f 85 86 93 92
f 86 87 94 93
f 87 88 95 94
f 88 89 96 95
f 89 83 90 96
f 90 91 98 97
f 91 92 99 98
f 92 93 100 99
f 93 94 101 100
f 94 95 102 101
f 95 96 103 102
f 96 90 97 103
f 97 98 105 104
f 98 99 106 105
f 99 100 107 106
f 100 101 108 107
f 101 102 109 108
f 102 103 110 109
f 103 97 104 110
f 111 112 119 118
f 112 113 120 119
f 113 114 121 120
f 114 115 122 121
f 115 116 123 122
f 116 117 124 123
f 117 111 118 124
f 118 119 126 125
f 119 120 127 126
f 120 121 128 127
f 121 122 129 128
f 122 123 130 129
f 123 124 131 130
f 124 118 125 131
f 125 126 133 132
f 126 127 134 133
f 127 128 135 134
f 128 129 136 135
f 129 130 137 136
f 130 131 138 137
f 131 125 132 138
f 139 140 147 146
f 140 141 148 147
f 141 142 149 148
f 142 143 150 149
f 143 144 151 150
f 144 145 152 151
f 145 139 146 152
f 146 147 154 153
f 147 148 155 154
f 148 149 156 155
f 149 150 157 156
f 150 151 158 157
f 151 152 159 158
f 152 146 153 159
f 153 154 161 160
f 154 155 162 161
f 155 156 163 162
f 156 157 164 163
f 157 158 165 164
f 158 159 166 165
f 159 153 160 166
f 167 169 168
f 167 170 169
f 167 171 170
f 167 172 171
f 167 173 172
f 167 174 173
f 167 175 174
f 167 176 175
f 167 177 176
f 167 178 177
f 167 168 178
f 168 169 180 179
f 169 170 181 180
f 170 171 182 181
f 171 172 183 182
f 172 173 184 183
f 173 174 185 184
f 174 175 186 185
f 175 176 187 186
f 176 177 188 187
f 177 178 189 188
f 178 168 179 189
f 179 180 191 190
f 180 181 192 191
f 181 182 193 192
f 182 183 194 193
f 183 184 195 194
f 184 185 196 195
f 185 186 197 196
f 186 187 198 197
f 187 188 199 198
f 188 189 200 199
f 189 179 190 200
f 190 191 202 201
f 191 192 203 202
f 192 193 204 203
f 193 194 205 204
f 194 195 206 205
f 195 196 207 206
f 196 197 208 207
f 197 198 209 208
f 198 199 210 209
f 199 200 211 210
f 200 190 201 211
f 201 202 213 212
f 202 203 214 213
f 203 204 215 214
f 204 205 216 215
f 205 206 217 216
f 206 207 218 217
f 207 208 219 218
f 208 209 220 219
f 209 210 221 220
f 210 211 222 221
f 211 201 212 222
f 212 213 224 223
f 213 214 225 224
f 214 215 226 225
f 215 216 227 226
f 216 217 228 227
f 217 218 229 228
f 218 219 230 229
f 219 220 231 230
f 220 221 232 231
f 221 222 233 232
f 222 212 223 233
f 223 224 234
f 224 225 234
f 225 226 234
f 226 227 234
f 227 228 234
f 228 229 234
f 229 230 234
f 230 231 234
f 231 232 234
f 232 233 234
f 233 223 234
f 235 237 236
f 235 238 237
f 235 239 238
f 235 240 239
f 235 241 240
f 235 242 241
f 235 243 242
f 235 244 243
f 235 236 244
f 236 237 246 245
f 237 238 247 246
f 238 239 248 247
f 239 240 249 248
f 240 241 250 249
f 241 242 251 250
f 242 243 252 251
f 243 244 253 252
f 244 236 245 253
f 245 246 255 254
f 246 247 256 255
f 247 248 257 256
f 248 249 258 257
f 249 250 259 258
f 250 251 260 259
f 251 252 261 260
f 252 253 262 261
f 253 245 254 262
f 254 255 264 263
f 255 256 265 264
f 256 257 266 265
f 257 258 267 266
f 258 259 268 267
f 259 260 269 268
f 260 261 270 269
f 261 262 271 270
f 262 254 263 271
f 263 264 273 272
f 264 265 274 273
f 265 266 275 274
f 266 267 276 275
f 267 268 277 276
f 268 269 278 277
f 269 270 279 278
f 270 271 280 279
f 271 263 272 280
f 272 273 281
f 273 274 281
f 274 275 281
f 275 276 281
f 276 277 281
f 277 278 281
f 278 279 281
f 279 280 281
f 280 272 281
f 282 284 283
f 282 285 284
f 282 286 285
f 282 287 286
f 282 288 287
f 282 289 288
f 282 290 289
f 282 291 290
f 282 283 291
f 283 284 293 292
f 284 285 294 293
f 285 286 295 294
f 286 287 296 295
f 287 288 297 296
f 288 289 298 297
f 289 290 299 298
f 290 291 300 299
f 291 283 292 300
f 292 293 302 301
f 293 294 303 302
f 294 295 304 303
f 295 296 305 304
f 296 297 306 305
f 297 298 307 306
f 298 299 308 307
f 299 300 309 308
f 300 292 301 309
f 301 302 311 310
f 302 303 312 311
f 303 304 313 312
f 304 305 314 313
f 305 306 315 314
f 306 307 316 315
f 307 308 317 316
f 308 309 318 317
f 309 301 310 318
f 310 311 320 319
f 311 312 321 320
f 312 313 322 321
f 313 314 323 322
f 314 315 324 323
f 315 316 325 324
f 316 317 326 325
f 317 318 327 326
f 318 310 319 327
f 319 320 328
f 320 321 328
f 321 322 328
f 322 323 328
f 323 324 328
f 324 325 328
f 325 326 328
f 326 327 328
f 327 319 328
f 329 331 330
f 329 332 331
f 329 333 332
f 329 334 333
f 329 335 334
f 329 336 335
f 329 337 336
f 329 338 337
f 329 330 338
f 330 331 340 339
f 331 332 341 340
f 332 333 342 341
f 333 334 343 342
f 334 335 344 343
f 335 336 345 344
f 336 337 346 345
f 337 338 347 346
f 338 330 339 347
f 339 340 349 348
f 340 341 350 349
f 341 342 351 350
f 342 343 352 351
f 343 344 353 352
f 344 345 354 353
f 345 346 355 354
f 346 347 356 355
f 347 339 348 356
f 348 349 358 357
f 349 350 359 358
f 350 351 360 359
f 351 352 361 360
f 352 353 362 361
f 353 354 363 362
f 354 355 364 363
f 355 356 365 364
f 356 348 357 365
f 357 358 367 366
f 358 359 368 367
f 359 360 369 368
f 360 361 370 369
f 361 362 371 370
f 362 363 372 371
f 363 364 373 372
f 364 365 374 373
f 365 357 366 374
f 366 367 375
f 367 368 375
f 368 369 375
f 369 370 375
f 370 371 375
f 371 372 375
f 372 373 375
f 373 374 375
f 374 366 375
f 376 378 377
f 376 379 378
f 376 380 379
f 376 381 380
f 376 382 381
f 376 383 382
f 376 384 383
f 376 385 384
f 376 377 385
f 377 378 387 386
f 378 379 388 387
f 379 380 389 388
f 380 381 390 389
f 381 382 391 390
f 382 383 392 391
f 383 384 393 392
f 384 385 394 393
f 385 377 386 394
f 386 387 396 395
f 387 388 397 396
f 388 389 398 397
f 389 390 399 398
f 390 391 400 399
f 391 392 401 400
f 392 393 402 401
f 393 394 403 402
f 394 386 395 403
f 395 396 405 404
f 396 397 406 405
f 397 398 407 406
f 398 399 408 407
f 399 400 409 408
f 400 401 410 409
f 401 402 411 410
f 402 403 412 411
f 403 395 404 412
f 404 405 414 413
f 405 406 415 414
f 406 407 416 415
f 407 408 417 416
f 408 409 418 417
f 409 410 419 418
f 410 411 420 419
f 411 412 421 420
f 412 404 413 421
f 413 414 422
f 414 415 422
f 415 416 422
f 416 417 422
f 417 418 422
f 418 419 422
f 419 420 422
f 420 421 422
f 421 413 422
f 423 2 1
f 423 3 2
f 423 4 3
f 423 5 4
f 423 6 5
f 423 7 6
f 423 8 7
f 423 9 8
f 423 1 9
